# xmcd CD database file
#
# Track frame offsets:
#	182
#	12252
#	23897
#	42292
#	54495
#	77975
#	90357
#	107572
#	122755
#	137190
#	147310
#	159542
#	177642
#
# Disc length: 2619 seconds
#
# Revision: 2
# Processed by: cddbd v1.4PL0 Copyright (c) Steve Scherf et al.
# Submitted via: CDex 1.40Beta9
#
DISCID=ac0a390d
DTITLE=Blood Oranges - The Crying Tree
DYEAR=1900
DGENRE=
TTITLE0=Halfway 'Round The World
TTITLE1=Miss It All
TTITLE2=Hell's Half Acre
TTITLE3=Bridges
TTITLE4=Crying Tree
TTITLE5=Sally
TTITLE6=Shadow Of You
TTITLE7=Handle Breaks
TTITLE8=This Old Town
TTITLE9=On The Run
TTITLE10=Titanic
TTITLE11=Hinges
TTITLE12=Shine
EXTD=
EXTT0=
EXTT1=
EXTT2=
EXTT3=
EXTT4=
EXTT5=
EXTT6=
EXTT7=
EXTT8=
EXTT9=
EXTT10=
EXTT11=
EXTT12=
PLAYORDER=
